<?xml version="1.0" encoding="UTF-8" standalone="no"?>
<!-- Created with Inkscape (http://www.inkscape.org/) -->

<svg
   width="1222.724mm"
   height="1222.724mm"
   viewBox="0 0 1222.7241 1222.724"
   version="1.1"
   id="svg2513"
   inkscape:version="1.2.2 (732a01da63, 2022-12-09)"
   sodipodi:docname="al_azhar_book_logo-nooutline.svg"
   inkscape:export-filename="al_azhar_book_logo-nooutline.png"
   inkscape:export-xdpi="96"
   inkscape:export-ydpi="96"
   xmlns:inkscape="http://www.inkscape.org/namespaces/inkscape"
   xmlns:sodipodi="http://sodipodi.sourceforge.net/DTD/sodipodi-0.dtd"
   xmlns="http://www.w3.org/2000/svg"
   xmlns:svg="http://www.w3.org/2000/svg">
  <sodipodi:namedview
     id="namedview2515"
     pagecolor="#ffffff"
     bordercolor="#999999"
     borderopacity="1"
     inkscape:showpageshadow="0"
     inkscape:pageopacity="0"
     inkscape:pagecheckerboard="0"
     inkscape:deskcolor="#d1d1d1"
     inkscape:document-units="mm"
     showgrid="false"
     showguides="true"
     inkscape:zoom="0.083233507"
     inkscape:cx="738.88512"
     inkscape:cy="2943.5261"
     inkscape:window-width="1920"
     inkscape:window-height="1009"
     inkscape:window-x="-8"
     inkscape:window-y="-8"
     inkscape:window-maximized="1"
     inkscape:current-layer="layer1" />
  <defs
     id="defs2510">
    <filter
       inkscape:collect="always"
       style="color-interpolation-filters:sRGB"
       id="filter894"
       x="-0.083667766"
       y="-0.10386045"
       width="1.1673355"
       height="1.2078115">
      <feGaussianBlur
         inkscape:collect="always"
         stdDeviation="26.04307"
         id="feGaussianBlur896" />
    </filter>
    <filter
       inkscape:collect="always"
       style="color-interpolation-filters:sRGB"
       id="filter898"
       x="-0.13168387"
       y="-0.12242871"
       width="1.2633677"
       height="1.244865">
      <feGaussianBlur
         inkscape:collect="always"
         stdDeviation="26.04307"
         id="feGaussianBlur900" />
    </filter>
  </defs>
  <g
     inkscape:label="Layer 1"
     inkscape:groupmode="layer"
     id="layer1"
     transform="translate(34.459777,71.368863)">
    <g
       id="g11780"
       transform="matrix(1.1606496,0,0,1.1606496,-49.848554,-98.452863)">
      <path
         id="path914"
         style="opacity:0.378049;mix-blend-mode:normal;fill:#000000;fill-opacity:1;stroke:#000000;stroke-width:33.7855;stroke-linecap:round;stroke-linejoin:round;stroke-dasharray:none;stroke-opacity:1;paint-order:stroke fill markers;filter:url(#filter898)"
         d="m 658.03304,102.72624 -6.26299,19.82032 -20.65443,-2.34038 16.91508,12.08124 -7.8251,17.19946 c -9.94246,-5.74955 -17.26021,-15.81916 -19.06326,-28.06442 -0.8337,-5.66194 -0.40475,-11.21867 1.07492,-16.38433 -5.83666,7.96949 -8.66601,18.14746 -7.11331,28.6924 2.59365,17.6145 16.59688,30.72973 33.41225,32.95524 -34.64683,76.62962 -294.51337,107.21106 -156.77682,310.44115 h -50.12061 v 36.82421 h 41.72118 v 30.82551 h -94.14588 l -9.23245,-251.57413 h 13.49978 v -21.9847 h -16.86424 v -28.16108 h 16.86424 v -21.98468 h -11.90358 c 44.28718,-68.97656 -48.83248,-80.71008 -54.73378,-109.39661 -5.98346,28.5838 -103.69706,37.1456 -54.72987,109.39661 H 258.4078 v 21.98468 h 16.86424 v 28.16108 H 258.4078 v 21.9847 h 13.49978 l -13.49978,367.84828 279.97991,90.14337 279.97937,-90.14337 h 1.24924 V 544.77664 513.95113 H 861.3375 V 477.12692 H 811.21744 C 935.65233,283.32166 688.45147,244.34798 654.46912,167.00982 c 1.60483,-0.0358 3.22541,-0.1702 4.8545,-0.41008 15.62541,-2.30077 27.70968,-13.58006 31.79316,-27.83592 -4.78059,6.52752 -11.57952,11.57165 -19.64375,14.12105 l -6.58311,-19.7136 18.08554,-10.24704 -20.78573,0.16816 z m -1.89343,36.12753 15.33174,14.03166 c -1.96529,0.6212 -4.00507,1.09631 -6.10989,1.40623 -8.68416,1.2787 -17.11943,-0.41442 -24.27758,-4.31146 z m -367.0119,104.20296 h 15.86863 v 28.16108 h -15.86863 z m 29.7243,0 h 15.86864 v 28.16108 h -15.86864 z m 29.7243,0 h 14.16518 v 28.16108 h -14.16518 z" />
      <g
         id="g912"
         transform="translate(-21.92827,14.330519)"
         style="opacity:0.432927;mix-blend-mode:normal;fill:#000000;fill-opacity:1;stroke:#000000;stroke-width:16.8928;stroke-dasharray:none;stroke-opacity:1;filter:url(#filter894)">
        <path
           id="path896"
           style="fill:#000000;fill-opacity:1;stroke:#000000;stroke-width:16.8928;stroke-linecap:round;stroke-linejoin:round;stroke-dasharray:none;stroke-opacity:1"
           d="M 148.95021,337.81697 550.90934,466.5695 c 6.10454,1.95534 0,0 11.01894,3.65982 v 521.30839 c -11.01894,-3.253 -4.9144,-1.2977 -11.01894,-3.253 L 148.95021,859.53212 c -6.1045,-1.95538 -11.01896,-13.85032 -11.01896,-26.67037 V 357.42833 c 0,-12.82005 4.91446,-21.56671 11.01896,-19.61136 z"
           sodipodi:nodetypes="ssccsssss" />
        <path
           id="path898"
           style="fill:#000000;fill-opacity:1;stroke:#000000;stroke-width:16.8928;stroke-linecap:round;stroke-linejoin:round;stroke-dasharray:none;stroke-opacity:1"
           d="M 148.95021,318.2464 550.90934,446.999 c 6.10454,1.95533 0,0 11.01894,3.65982 v 521.30839 c -11.01894,-3.2531 -4.9144,-1.2977 -11.01894,-3.2531 L 148.95021,839.96161 c -6.1045,-1.95537 -11.01896,-13.85037 -11.01896,-26.67041 V 337.85776 c 0,-12.82004 4.91446,-21.56671 11.01896,-19.61136 z"
           sodipodi:nodetypes="ssccsssss" />
        <path
           id="path900"
           style="fill:#000000;fill-opacity:1;stroke:#000000;stroke-width:16.8928;stroke-linecap:round;stroke-linejoin:round;stroke-dasharray:none;stroke-opacity:1"
           d="M 974.90631,337.81697 572.94721,466.5695 c -6.10453,1.95534 0,0 -11.01893,3.65982 v 521.30839 c 11.01893,-3.253 4.9144,-1.2977 11.01893,-3.253 l 401.9591,-128.75259 c 6.10453,-1.95538 11.01898,-13.85032 11.01898,-26.67037 V 357.42833 c 0,-12.82005 -4.91445,-21.56671 -11.01898,-19.61136 z"
           sodipodi:nodetypes="ssccsssss" />
        <path
           id="path902"
           style="fill:#000000;fill-opacity:1;stroke:#000000;stroke-width:16.8928;stroke-linecap:round;stroke-linejoin:round;stroke-dasharray:none;stroke-opacity:1"
           d="M 974.90631,318.2464 572.94721,446.999 c -6.10453,1.95533 0,0 -11.01893,3.65982 v 521.30839 c 11.01893,-3.2531 4.9144,-1.2977 11.01893,-3.2531 l 401.9591,-128.7525 c 6.10453,-1.95537 11.01898,-13.85037 11.01898,-26.67041 V 337.85776 c 0,-12.82004 -4.91445,-21.56671 -11.01898,-19.61136 z"
           sodipodi:nodetypes="ssccsssss" />
        <path
           id="path904"
           style="fill:#000000;fill-opacity:1;stroke:#000000;stroke-width:16.8928;stroke-linecap:round;stroke-linejoin:round;stroke-dasharray:none;stroke-opacity:1"
           d="m 185.77135,338.61428 366.12041,117.27288 c 5.56028,1.781 0,0 10.03652,3.33353 v 474.82852 c -10.03652,-2.9631 -4.47624,-1.182 -10.03652,-2.9631 L 185.77135,813.81322 c -5.56023,-1.781 -10.03651,-12.61543 -10.03651,-24.29245 v -433.0437 c 0,-11.67698 4.47628,-19.6438 10.03651,-17.86279 z"
           sodipodi:nodetypes="ssccsssss" />
        <path
           id="path906"
           style="fill:#000000;fill-opacity:1;stroke:#000000;stroke-width:16.8928;stroke-linecap:round;stroke-linejoin:round;stroke-dasharray:none;stroke-opacity:1"
           d="m 938.08519,338.6143 -366.1204,117.27286 c -5.56028,1.781 0,0 -10.03651,3.33353 v 474.82852 c 10.03651,-2.9631 4.47623,-1.182 10.03651,-2.9631 l 366.1204,-117.27289 c 5.56023,-1.781 10.03651,-12.61543 10.03651,-24.29245 v -433.0437 c 0,-11.67697 -4.47628,-19.64378 -10.03651,-17.86277 z"
           sodipodi:nodetypes="ssccsssss" />
        <path
           id="path908"
           style="fill:#000000;fill-opacity:1;stroke:#000000;stroke-width:16.8928;stroke-linecap:round;stroke-linejoin:round;stroke-dasharray:none;stroke-opacity:1"
           d="m 185.77135,309.25842 366.12041,117.27285 c 5.56028,1.78099 0,0 10.03652,3.33353 v 474.82855 c -10.03652,-2.9631 -4.47624,-1.18205 -10.03652,-2.9631 L 185.77135,784.45732 c -5.56023,-1.78099 -10.03651,-12.61543 -10.03651,-24.29245 V 327.12124 c 0,-11.67701 4.47628,-19.64382 10.03651,-17.86282 z"
           sodipodi:nodetypes="ssccsssss" />
        <path
           id="path910"
           style="fill:#000000;fill-opacity:1;stroke:#000000;stroke-width:16.8928;stroke-linecap:round;stroke-linejoin:round;stroke-dasharray:none;stroke-opacity:1"
           d="m 938.08519,309.25844 -366.1204,117.27283 c -5.56028,1.78099 0,0 -10.03651,3.33353 v 474.82855 c 10.03651,-2.9631 4.47623,-1.18205 10.03651,-2.9631 l 366.1204,-117.27293 c 5.56023,-1.78099 10.03651,-12.61543 10.03651,-24.29245 V 327.12124 c 0,-11.67699 -4.47628,-19.6438 -10.03651,-17.8628 z"
           sodipodi:nodetypes="ssccsssss" />
      </g>
      <g
         id="g6389"
         transform="translate(-21.92827,14.330519)"
         style="opacity:1">
        <path
           id="path2845"
           style="fill:#3a6b9a;fill-opacity:1;stroke-width:9.24594;stroke-linecap:round;stroke-linejoin:round"
           d="M 148.95021,337.81697 550.90934,466.5695 c 6.10454,1.95534 0,0 11.01894,3.65982 v 521.30839 c -11.01894,-3.253 -4.9144,-1.2977 -11.01894,-3.253 L 148.95021,859.53212 c -6.1045,-1.95538 -11.01896,-13.85032 -11.01896,-26.67037 V 357.42833 c 0,-12.82005 4.91446,-21.56671 11.01896,-19.61136 z"
           sodipodi:nodetypes="ssccsssss" />
        <path
           id="rect1889"
           style="fill:#397fc3;stroke-width:9.24594;stroke-linecap:round;stroke-linejoin:round"
           d="M 148.95021,318.2464 550.90934,446.999 c 6.10454,1.95533 0,0 11.01894,3.65982 v 521.30839 c -11.01894,-3.2531 -4.9144,-1.2977 -11.01894,-3.2531 L 148.95021,839.96161 c -6.1045,-1.95537 -11.01896,-13.85037 -11.01896,-26.67041 V 337.85776 c 0,-12.82004 4.91446,-21.56671 11.01896,-19.61136 z"
           sodipodi:nodetypes="ssccsssss" />
        <path
           id="path2847"
           style="fill:#3a6b9a;fill-opacity:1;stroke-width:9.24594;stroke-linecap:round;stroke-linejoin:round"
           d="M 974.90631,337.81697 572.94721,466.5695 c -6.10453,1.95534 0,0 -11.01893,3.65982 v 521.30839 c 11.01893,-3.253 4.9144,-1.2977 11.01893,-3.253 l 401.9591,-128.75259 c 6.10453,-1.95538 11.01898,-13.85032 11.01898,-26.67037 V 357.42833 c 0,-12.82005 -4.91445,-21.56671 -11.01898,-19.61136 z"
           sodipodi:nodetypes="ssccsssss" />
        <path
           id="path2849"
           style="fill:#397fc3;stroke-width:9.24594;stroke-linecap:round;stroke-linejoin:round"
           d="M 974.90631,318.2464 572.94721,446.999 c -6.10453,1.95533 0,0 -11.01893,3.65982 v 521.30839 c 11.01893,-3.2531 4.9144,-1.2977 11.01893,-3.2531 l 401.9591,-128.7525 c 6.10453,-1.95537 11.01898,-13.85037 11.01898,-26.67041 V 337.85776 c 0,-12.82004 -4.91445,-21.56671 -11.01898,-19.61136 z"
           sodipodi:nodetypes="ssccsssss" />
        <path
           id="path2859"
           style="fill:#e5e5e5;fill-opacity:1;stroke-width:8.42157;stroke-linecap:round;stroke-linejoin:round"
           d="m 185.77135,338.61428 366.12041,117.27288 c 5.56028,1.781 0,0 10.03652,3.33353 v 474.82852 c -10.03652,-2.9631 -4.47624,-1.182 -10.03652,-2.9631 L 185.77135,813.81322 c -5.56023,-1.781 -10.03651,-12.61543 -10.03651,-24.29245 v -433.0437 c 0,-11.67698 4.47628,-19.6438 10.03651,-17.86279 z"
           sodipodi:nodetypes="ssccsssss" />
        <path
           id="path2861"
           style="fill:#e5e5e5;fill-opacity:1;stroke-width:8.42157;stroke-linecap:round;stroke-linejoin:round"
           d="m 938.08519,338.6143 -366.1204,117.27286 c -5.56028,1.781 0,0 -10.03651,3.33353 v 474.82852 c 10.03651,-2.9631 4.47623,-1.182 10.03651,-2.9631 l 366.1204,-117.27289 c 5.56023,-1.781 10.03651,-12.61543 10.03651,-24.29245 v -433.0437 c 0,-11.67697 -4.47628,-19.64378 -10.03651,-17.86277 z"
           sodipodi:nodetypes="ssccsssss" />
        <path
           id="path2863"
           style="fill:#ffffff;fill-opacity:1;stroke-width:8.42157;stroke-linecap:round;stroke-linejoin:round"
           d="m 185.77135,309.25842 366.12041,117.27285 c 5.56028,1.78099 0,0 10.03652,3.33353 v 474.82855 c -10.03652,-2.9631 -4.47624,-1.18205 -10.03652,-2.9631 L 185.77135,784.45732 c -5.56023,-1.78099 -10.03651,-12.61543 -10.03651,-24.29245 V 327.12124 c 0,-11.67701 4.47628,-19.64382 10.03651,-17.86282 z"
           sodipodi:nodetypes="ssccsssss" />
        <path
           id="path2865"
           style="fill:#ffffff;fill-opacity:1;stroke-width:8.42157;stroke-linecap:round;stroke-linejoin:round"
           d="m 938.08519,309.25844 -366.1204,117.27283 c -5.56028,1.78099 0,0 -10.03651,3.33353 v 474.82855 c 10.03651,-2.9631 4.47623,-1.18205 10.03651,-2.9631 l 366.1204,-117.27293 c 5.56023,-1.78099 10.03651,-12.61543 10.03651,-24.29245 V 327.12124 c 0,-11.67699 -4.47628,-19.6438 -10.03651,-17.8628 z"
           sodipodi:nodetypes="ssccsssss" />
      </g>
      <path
         id="rect4371"
         style="fill:#397fc3;fill-opacity:1;stroke:#ffffff;stroke-width:16.8652;stroke-linecap:round;stroke-linejoin:round;stroke-dasharray:none;stroke-opacity:1;paint-order:stroke fill markers"
         d="m 658.03304,102.72624 -6.26299,19.82032 -20.65443,-2.34038 16.91508,12.08124 -7.8251,17.19946 c -9.94246,-5.74955 -17.26021,-15.81916 -19.06326,-28.06442 -0.8337,-5.66194 -0.40475,-11.21867 1.07492,-16.38433 -5.83666,7.96949 -8.66601,18.14746 -7.11331,28.6924 2.59365,17.6145 16.59688,30.72973 33.41225,32.95524 -34.64683,76.62962 -294.51337,107.21106 -156.77682,310.44115 h -50.12061 v 36.82421 h 41.72118 v 30.82551 h -94.14588 l -9.23245,-251.57413 h 13.49978 v -21.9847 h -16.86424 v -28.16108 h 16.86424 v -21.98468 h -11.90358 c 44.28718,-68.97656 -48.83248,-80.71008 -54.73378,-109.39661 -5.98346,28.5838 -103.69706,37.1456 -54.72987,109.39661 H 258.4078 v 21.98468 h 16.86424 v 28.16108 H 258.4078 v 21.9847 h 13.49978 l -13.49978,367.84828 279.97991,90.14337 279.97937,-90.14337 h 1.24924 V 544.77664 513.95113 H 861.3375 V 477.12692 H 811.21744 C 935.65233,283.32166 688.45147,244.34798 654.46912,167.00982 c 1.60483,-0.0358 3.22541,-0.1702 4.8545,-0.41008 15.62541,-2.30077 27.70968,-13.58006 31.79316,-27.83592 -4.78059,6.52752 -11.57952,11.57165 -19.64375,14.12105 l -6.58311,-19.7136 18.08554,-10.24704 -20.78573,0.16816 z m -1.89343,36.12753 15.33174,14.03166 c -1.96529,0.6212 -4.00507,1.09631 -6.10989,1.40623 -8.68416,1.2787 -17.11943,-0.41442 -24.27758,-4.31146 z m -367.0119,104.20296 h 15.86863 v 28.16108 h -15.86863 z m 29.7243,0 h 15.86864 v 28.16108 h -15.86864 z m 29.7243,0 h 14.16518 v 28.16108 h -14.16518 z" />
    </g>
    <g
       id="g11750"
       transform="matrix(1.1668717,0,0,1.1668717,1315.9939,-111.31477)">
      <path
         id="path11718"
         style="fill:#397fc3;fill-opacity:1;stroke-width:7.60053;stroke-linecap:round;stroke-linejoin:round"
         d="m 360.63074,-39.101977 h 85.6511 L 456.98281,252.48086 H 349.92977 Z"
         sodipodi:nodetypes="ccccc" />
      <rect
         style="fill:#397fc3;fill-opacity:1;stroke:none;stroke-width:9.74587;stroke-linecap:round;stroke-linejoin:round;stroke-opacity:1"
         id="rect11720"
         width="107.05305"
         height="17.426733"
         x="349.92975"
         y="-56.528709" />
      <rect
         style="fill:#397fc3;fill-opacity:1;stroke:none;stroke-width:9.74587;stroke-linecap:round;stroke-linejoin:round;stroke-opacity:1"
         id="rect11722"
         width="107.05305"
         height="17.426733"
         x="349.92975"
         y="-96.27813" />
      <rect
         style="fill:#397fc3;fill-opacity:1;stroke:none;stroke-width:8.55009;stroke-linecap:round;stroke-linejoin:round;stroke-opacity:1"
         id="rect11724"
         width="10.982793"
         height="22.322678"
         x="363.29749"
         y="-78.851402" />
      <rect
         style="fill:#397fc3;fill-opacity:1;stroke:none;stroke-width:8.55009;stroke-linecap:round;stroke-linejoin:round;stroke-opacity:1"
         id="rect11726"
         width="10.982793"
         height="22.322678"
         x="386.85922"
         y="-78.851402" />
      <rect
         style="fill:#397fc3;fill-opacity:1;stroke:none;stroke-width:8.55009;stroke-linecap:round;stroke-linejoin:round;stroke-opacity:1"
         id="rect11728"
         width="10.982793"
         height="22.322678"
         x="410.42096"
         y="-78.851402" />
      <rect
         style="fill:#397fc3;fill-opacity:1;stroke:none;stroke-width:8.55009;stroke-linecap:round;stroke-linejoin:round;stroke-opacity:1"
         id="rect11730"
         width="10.982793"
         height="22.322678"
         x="432.63226"
         y="-78.851402" />
      <path
         id="path11732"
         style="fill:#397fc3;fill-opacity:1;stroke-width:36.7289;stroke-linecap:round;stroke-linejoin:round"
         d="M 661.5023,-146.39648 C 647.6597,-80.268497 421.60082,-60.461627 534.88529,106.68944 H 661.5023 788.12671 C 890.58413,-52.886287 675.15481,-80.030867 661.5023,-146.39648 Z"
         sodipodi:nodetypes="ccccc" />
      <rect
         style="fill:#397fc3;fill-opacity:1;stroke:none;stroke-width:8.33521;stroke-linecap:round;stroke-linejoin:round;stroke-opacity:1"
         id="rect11734"
         width="332.69965"
         height="29.189934"
         x="495.15591"
         y="106.68943" />
      <rect
         style="fill:#397fc3;fill-opacity:1;stroke:none;stroke-width:10.5511;stroke-linecap:round;stroke-linejoin:round;stroke-opacity:1"
         id="rect11736"
         width="266.55688"
         height="58.379883"
         x="528.22729"
         y="106.68943" />
      <path
         id="path11738"
         style="fill:#397fc3;stroke-width:17.0613;stroke-linecap:round;stroke-linejoin:round"
         d="m 353.31226,160.31358 h 441.47189 v 92.16733 l -444.85438,-5e-5 z"
         sodipodi:nodetypes="ccccc" />
      <path
         id="path11740"
         style="fill:#397fc3;fill-opacity:1;stroke-width:2.11535;stroke-linecap:round;stroke-linejoin:round"
         d="m 638.31145,-188.25484 c -4.62656,6.3172 -6.86933,14.3849 -5.63855,22.74359 2.4846,16.87391 18.17763,28.53913 35.05154,26.05453 12.38584,-1.82376 21.96484,-10.76445 25.20171,-22.06469 -4.7132,6.43549 -11.90015,11.05458 -20.41536,12.3084 -16.87391,2.4846 -32.56695,-9.18061 -35.05155,-26.05452 -0.66084,-4.48807 -0.32069,-8.89263 0.85221,-12.98731 z" />
      <path
         sodipodi:type="star"
         style="fill:#397fc3;fill-opacity:1;stroke-width:2;stroke-linecap:round;stroke-linejoin:round"
         id="path11742"
         inkscape:flatsided="false"
         sodipodi:sides="5"
         sodipodi:cx="662.54303"
         sodipodi:cy="-191.53944"
         sodipodi:r1="27.802675"
         sodipodi:r2="9.0385761"
         sodipodi:arg1="-0.26179939"
         sodipodi:arg2="0.36651914"
         inkscape:rounded="0"
         inkscape:randomized="0"
         d="m 689.39835,-198.73531 -18.41708,10.435 6.70418,20.07815 -15.61546,-14.29109 -17.02375,12.58054 8.7662,-19.26738 -17.22544,-12.30294 21.03327,2.3832 6.37784,-20.18419 4.23308,20.74028 z"
         inkscape:transform-center-x="-0.34999731"
         inkscape:transform-center-y="-1.7308465"
         transform="matrix(0.77838285,0,0,0.77838285,149.85672,-19.385008)" />
      <path
         id="path11744"
         style="fill:#397fc3;fill-opacity:1;stroke-width:12.5845;stroke-linecap:round;stroke-linejoin:round"
         d="m 404.16149,-182.99367 c -4.74293,22.65761 -82.19812,29.4441 -43.38314,86.71554 h 43.38314 43.38568 c 35.10527,-54.67588 -38.70788,-63.9765 -43.38568,-86.71554 z"
         sodipodi:nodetypes="ccccc" />
      <path
         id="path11746"
         style="fill:#397fc3;stroke-width:1.91968;stroke-linecap:round;stroke-linejoin:round"
         d="m 349.92977,252.48086 h 221.9321 v 71.45443 z"
         sodipodi:nodetypes="cccc" />
      <path
         id="path11748"
         style="fill:#397fc3;stroke-width:1.91968;stroke-linecap:round;stroke-linejoin:round"
         d="m 793.79397,252.48086 h -221.9321 v 71.45443 z"
         sodipodi:nodetypes="cccc" />
    </g>
  </g>
</svg>
